<?xml version="1.0" standalone="no"?>
<!DOCTYPE svg PUBLIC "-//W3C//DTD SVG 20010904//EN"
 "http://www.w3.org/TR/2001/REC-SVG-20010904/DTD/svg10.dtd">
<svg version="1.0" xmlns="http://www.w3.org/2000/svg"
 width="864.000000pt" height="864.000000pt" viewBox="0 0 864.000000 864.000000"
 preserveAspectRatio="xMidYMid meet">
<metadata>
Created by potrace 1.14, written by Peter Selinger 2001-2017
</metadata>
<g transform="translate(0.000000,864.000000) scale(0.100000,-0.100000)"
fill="#000000" stroke="none">
<path d="M5013 7682 c-28 -26 -75 -67 -104 -92 -30 -25 -63 -54 -75 -65 -11
-11 -52 -47 -89 -80 -38 -33 -77 -67 -85 -75 -9 -8 -47 -42 -85 -75 -37 -33
-73 -65 -79 -70 -6 -6 -42 -37 -80 -70 -39 -33 -84 -73 -102 -90 -17 -16 -60
-55 -94 -85 -35 -30 -73 -63 -84 -73 -12 -11 -45 -40 -75 -65 -30 -26 -59 -52
-65 -58 -6 -5 -67 -59 -136 -119 -69 -61 -137 -121 -151 -135 -15 -14 -55 -50
-90 -80 -96 -83 -171 -149 -204 -180 -16 -15 -52 -47 -80 -70 -44 -37 -153
-134 -220 -195 -13 -11 -47 -41 -76 -66 -30 -26 -66 -57 -80 -70 -14 -13 -56
-51 -94 -84 -38 -33 -73 -65 -79 -70 -6 -6 -67 -60 -136 -120 -69 -61 -138
-122 -155 -137 -16 -14 -41 -36 -55 -48 -33 -28 -134 -118 -175 -155 -28 -26
-94 -84 -179 -158 -12 -10 -38 -34 -59 -53 -20 -19 -37 -33 -37 -31 0 2 -24
-19 -54 -47 -29 -28 -73 -67 -96 -86 -23 -19 -50 -42 -59 -51 -20 -20 -206
-185 -277 -246 -12 -10 -54 -47 -94 -83 -40 -36 -82 -73 -94 -83 -12 -10 -50
-44 -85 -75 -35 -31 -77 -68 -94 -82 -16 -14 -45 -39 -63 -57 -19 -17 -54 -48
-79 -69 -25 -20 -65 -55 -89 -78 -24 -22 -70 -63 -102 -91 -31 -27 -65 -57
-74 -65 -9 -8 -45 -40 -80 -71 -36 -31 -76 -67 -90 -80 -14 -13 -52 -46 -85
-74 -32 -27 -68 -59 -80 -70 -11 -11 -54 -49 -95 -85 -107 -93 -174 -154 -181
-163 -3 -5 -6 -526 -6 -1158 l0 -1150 31 28 c16 15 45 42 62 58 18 17 63 57
100 90 37 33 86 77 108 98 23 22 66 60 96 87 30 26 69 61 86 77 16 15 72 66
124 113 51 47 105 96 119 109 14 13 57 51 95 85 38 33 85 77 106 96 20 19 65
60 99 90 35 30 77 69 94 85 18 17 68 62 112 101 44 40 92 83 106 95 14 13 67
62 119 109 52 47 103 94 115 105 12 11 54 49 95 85 40 36 92 83 115 105 24 22
78 72 121 110 43 39 89 81 104 94 14 13 56 51 94 85 37 33 83 75 101 91 17 17
67 62 110 100 42 39 90 81 105 95 15 14 63 57 105 95 43 39 97 88 120 110 24
22 71 65 105 95 35 30 75 66 89 80 14 14 64 59 110 100 46 41 94 84 105 95 12
11 64 58 116 105 51 47 105 96 119 109 14 13 57 51 95 85 37 33 88 80 113 104
24 23 47 42 50 42 3 0 13 8 22 18 16 18 73 70 241 222 52 47 109 99 126 115
18 17 63 58 101 92 38 34 83 74 100 90 16 15 65 60 108 98 43 39 93 84 111
100 33 31 174 159 204 185 63 55 180 162 217 198 24 23 45 42 47 42 2 0 32 27
67 60 35 33 66 60 69 60 6 0 4 2179 -2 2185 -1 2 -26 -18 -55 -43z"/>
<path d="M8354 7716 c-12 -12 -33 -31 -163 -144 -45 -40 -89 -78 -96 -85 -15
-15 -57 -52 -155 -137 -41 -36 -77 -67 -80 -70 -6 -6 -137 -121 -189 -166 -19
-16 -43 -38 -55 -50 -12 -11 -54 -49 -95 -85 -41 -35 -82 -71 -91 -79 -9 -8
-49 -44 -90 -80 -40 -36 -78 -70 -84 -75 -6 -6 -42 -37 -81 -70 -38 -33 -76
-67 -85 -75 -9 -8 -47 -42 -84 -75 -38 -33 -84 -73 -102 -90 -51 -46 -84 -75
-153 -135 -35 -30 -71 -62 -80 -70 -9 -9 -52 -47 -95 -85 -44 -39 -87 -77 -97
-85 -14 -13 -44 -40 -204 -181 -22 -20 -55 -49 -74 -65 -18 -16 -43 -38 -55
-49 -12 -11 -53 -47 -91 -80 -106 -93 -177 -155 -215 -190 -37 -33 -107 -95
-204 -179 -32 -28 -70 -62 -86 -76 -15 -14 -53 -47 -85 -75 -31 -27 -67 -59
-79 -70 -51 -46 -127 -113 -181 -160 -31 -27 -69 -61 -85 -75 -33 -30 -145
-129 -252 -222 -80 -70 -150 -133 -183 -163 -18 -16 -56 -50 -86 -75 -29 -25
-67 -58 -84 -75 -18 -16 -58 -52 -91 -80 -32 -27 -66 -57 -75 -65 -16 -16 -35
-32 -159 -140 -41 -36 -86 -76 -101 -90 -14 -14 -49 -45 -78 -70 -28 -25 -69
-61 -91 -80 -21 -19 -62 -55 -91 -80 -29 -25 -70 -62 -91 -82 -22 -20 -53 -47
-68 -60 -64 -53 -167 -145 -210 -188 l-46 -45 2 -1140 c1 -627 2 -1144 3
-1148 0 -4 18 9 40 30 21 21 71 67 112 103 40 36 91 82 113 103 22 21 67 61
99 90 33 29 74 66 92 82 17 17 65 60 106 96 41 37 86 78 100 90 14 13 60 56
103 94 43 39 92 84 110 100 18 17 70 64 116 105 45 41 110 100 143 130 33 30
70 64 83 75 12 11 59 54 104 95 45 41 95 86 110 100 159 143 196 176 320 290
51 47 102 93 114 103 11 10 57 51 101 91 44 41 92 84 106 97 69 62 184 167
209 189 15 14 64 59 110 100 46 41 95 86 110 100 40 36 189 172 214 193 18 16
152 137 206 187 9 8 61 56 116 105 54 50 104 95 110 100 6 6 43 39 83 75 40
36 90 81 110 100 21 19 75 69 121 110 46 41 106 96 134 121 28 26 63 57 77 70
91 82 176 159 209 189 20 19 70 64 110 100 40 36 84 76 99 90 15 14 67 61 116
105 48 44 99 90 113 102 13 13 63 58 111 100 47 43 100 92 118 108 18 17 60
55 94 85 34 30 78 71 99 90 21 19 53 48 71 65 19 16 59 52 89 80 l55 51 0
1086 c-1 598 -3 1089 -5 1092 -3 2 -10 -1 -16 -8z"/>
</g>
</svg>
