<?xml version="1.0" encoding="UTF-8"?>
<svg id="Layer_2" data-name="Layer 2" xmlns="http://www.w3.org/2000/svg" preserveAspectRatio="xMidYMid meet" viewBox="0 0 1762.02 383.07" height="30">
  <defs>
    <style>
      .cls-1 {
        fill: #f33;
      }

      .cls-2 {
        fill: #99a3b6;
      }
    </style>
  </defs>
  <g id="Layer_1-2" data-name="Layer 1">
    <g>
      <path class="cls-1" d="m65.87,159.58c0,5.1-2.74,7.84-7.84,7.84H7.84c-5.1,0-7.84-2.74-7.84-7.84s2.74-7.84,7.84-7.84h50.19c5.1,0,7.84,2.74,7.84,7.84Zm0,21.56c0,5.1-2.74,7.84-7.84,7.84H7.84c-5.1,0-7.84-2.74-7.84-7.84s2.74-7.84,7.84-7.84h50.19c5.1,0,7.84,2.75,7.84,7.84Zm-7.84,29.41H7.84c-5.1,0-7.84-2.75-7.84-7.84s2.74-7.84,7.84-7.84h50.19c5.1,0,7.84,2.75,7.84,7.84s-2.74,7.84-7.84,7.84Zm7.84,13.72c0,5.1-2.74,7.84-7.84,7.84H8.23c-5.1,0-7.84-2.75-7.84-7.84s2.74-7.84,7.84-7.84h49.8c5.1,0,7.84,2.74,7.84,7.84Zm153.7-78.42H10.59c-5.1,0-7.84-2.75-7.84-7.84s2.74-7.84,7.84-7.84h208.98c5.1,0,7.84,2.74,7.84,7.84s-2.74,7.84-7.84,7.84ZM10.98,238h208.59c5.1,0,7.84,2.74,7.84,7.84s-2.74,7.84-7.84,7.84H10.98c-5.1,0-7.84-2.74-7.84-7.84s2.74-7.84,7.84-7.84Zm208.59-113.71H17.64c-5.1,0-7.84-2.75-7.84-7.84s2.74-7.84,7.84-7.84h201.93c5.1,0,7.84,2.74,7.84,7.84s-2.74,7.84-7.84,7.84ZM18.43,259.56h201.14c5.1,0,7.84,2.75,7.84,7.84s-2.74,7.84-7.84,7.84H18.43c-5.1,0-7.84-2.74-7.84-7.84s2.74-7.84,7.84-7.84Zm119.59-164.68c0,5.1-2.74,7.84-7.84,7.84H36.07c-5.1,0-7.84-2.74-7.84-7.84s2.74-7.84,7.84-7.84h94.1c5.1,0,7.84,2.74,7.84,7.84ZM30.19,288.97c0-5.1,2.74-7.84,7.84-7.84h90.96c5.1,0,7.84,2.75,7.84,7.84s-2.74,7.84-7.84,7.84H38.03c-5.1,0-7.84-2.75-7.84-7.84ZM227.41,94.89c0,5.1-2.74,7.84-7.84,7.84h-50.19c-5.1,0-7.84-2.74-7.84-7.84s2.74-7.84,7.84-7.84h50.19c5.1,0,7.84,2.74,7.84,7.84Zm-65.87,64.69c0-5.1,2.74-7.84,7.84-7.84h50.19c5.1,0,7.84,2.74,7.84,7.84s-2.74,7.84-7.84,7.84h-50.19c-5.1,0-7.84-2.74-7.84-7.84Zm0,21.56c0-5.1,2.74-7.84,7.84-7.84h50.19c5.1,0,7.84,2.75,7.84,7.84s-2.74,7.84-7.84,7.84h-50.19c-5.1,0-7.84-2.74-7.84-7.84Zm0,21.57c0-5.1,2.74-7.84,7.84-7.84h50.19c5.1,0,7.84,2.75,7.84,7.84s-2.74,7.84-7.84,7.84h-50.19c-5.1,0-7.84-2.75-7.84-7.84Zm0,21.57c0-5.1,2.74-7.84,7.84-7.84h50.19c5.1,0,7.84,2.74,7.84,7.84s-2.74,7.84-7.84,7.84h-50.19c-5.1,0-7.84-2.75-7.84-7.84Zm0,64.69c0-5.1,2.74-7.84,7.84-7.84h50.19c5.1,0,7.84,2.75,7.84,7.84s-2.74,7.84-7.84,7.84h-50.19c-5.1,0-7.84-2.75-7.84-7.84Zm0,21.57c0-5.1,2.74-7.84,7.84-7.84h50.19c5.1,0,7.84,2.74,7.84,7.84s-2.74,7.84-7.84,7.84h-50.19c-5.1,0-7.84-2.75-7.84-7.84Zm0,21.56c0-5.1,2.74-7.84,7.84-7.84h50.19c5.1,0,7.84,2.74,7.84,7.84s-2.74,7.84-7.84,7.84h-50.19c-5.1,0-7.84-2.74-7.84-7.84Zm0,21.56c0-5.1,2.74-7.84,7.84-7.84h50.19c5.1,0,7.84,2.75,7.84,7.84s-2.74,7.84-7.84,7.84h-50.19c-5.1,0-7.84-2.74-7.84-7.84Zm0,21.57c0-5.1,2.74-7.84,7.84-7.84h50.19c5.1,0,7.84,2.75,7.84,7.84s-2.74,7.84-7.84,7.84h-50.19c-5.1,0-7.84-2.75-7.84-7.84Z"/>
      <path class="cls-1" d="m325.82,95.28c0,5.1-2.74,7.84-7.84,7.84h-55.68c-5.1,0-7.84-2.74-7.84-7.84s2.74-7.84,7.84-7.84h55.68c5.1,0,7.84,2.74,7.84,7.84Zm6.27,21.56c0,5.1-2.74,7.84-7.84,7.84h-54.5c-5.1,0-7.84-2.74-7.84-7.84s2.74-7.84,7.84-7.84h54.5c5.1,0,7.84,2.74,7.84,7.84Zm6.27,21.56c0,5.1-2.74,7.84-7.84,7.84h-52.93c-5.1,0-7.84-2.75-7.84-7.84s2.74-7.84,7.84-7.84h52.93c5.1,0,7.84,2.75,7.84,7.84Zm6.27,21.57c0,5.1-2.74,7.84-7.84,7.84h-51.76c-5.1,0-7.84-2.75-7.84-7.84s2.74-7.84,7.84-7.84h51.76c5.1,0,7.84,2.74,7.84,7.84Zm6.27,21.56c0,5.1-2.74,7.84-7.84,7.84h-50.58c-5.1,0-7.84-2.74-7.84-7.84s2.74-7.84,7.84-7.84h50.58c5.1,0,7.84,2.74,7.84,7.84Zm6.27,21.56c0,5.1-2.74,7.84-7.84,7.84h-49.01c-5.1,0-7.84-2.74-7.84-7.84s2.74-7.84,7.84-7.84h49.01c5.1,0,7.84,2.75,7.84,7.84Zm6.27,21.57c0,5.1-2.74,7.84-7.84,7.84h-47.83c-5.1,0-7.84-2.75-7.84-7.84s2.74-7.84,7.84-7.84h47.83c5.1,0,7.84,2.75,7.84,7.84Zm-56.07,21.57c0-5.1,2.74-7.84,7.84-7.84h98.41c5.1,0,7.84,2.74,7.84,7.84s-2.74,7.84-7.84,7.84h-98.41c-5.1,0-7.84-2.75-7.84-7.84Zm7.45,21.56c0-5.1,2.74-7.84,7.84-7.84h84.69c5.1,0,7.84,2.74,7.84,7.84s-2.74,7.84-7.84,7.84h-84.69c-5.1,0-7.84-2.74-7.84-7.84Zm7.84,21.56c0-5.1,2.74-7.84,7.84-7.84h70.58c5.1,0,7.84,2.75,7.84,7.84s-2.74,7.84-7.84,7.84h-70.58c-5.1,0-7.84-2.74-7.84-7.84Zm50.19-64.69c0-5.1,2.74-7.84,7.84-7.84h39.21c5.1,0,7.84,2.75,7.84,7.84s-2.74,7.84-7.84,7.84h-39.21c-5.1,0-7.84-2.75-7.84-7.84Zm5.88-21.57c0-5.1,2.74-7.84,7.84-7.84h39.6c5.1,0,7.84,2.75,7.84,7.84s-2.74,7.84-7.84,7.84h-39.6c-5.1,0-7.84-2.74-7.84-7.84Zm6.27-21.56c0-5.1,2.74-7.84,7.84-7.84h39.6c5.1,0,7.84,2.74,7.84,7.84s-2.74,7.84-7.84,7.84h-39.6c-5.1,0-7.84-2.74-7.84-7.84Zm105.86-13.72h-91.75c-5.1,0-7.84-2.75-7.84-7.84s2.74-7.84,7.84-7.84h91.75c5.1,0,7.84,2.74,7.84,7.84s-2.74,7.84-7.84,7.84Zm1.96-29.41c0,5.1-2.74,7.84-7.84,7.84h-79.59c-5.1,0-7.84-2.75-7.84-7.84s2.74-7.84,7.84-7.84h79.59c5.1,0,7.84,2.75,7.84,7.84Zm-6.27-21.56c0,5.1-2.74,7.84-7.84,7.84h-67.05c-5.1,0-7.84-2.74-7.84-7.84s2.74-7.84,7.84-7.84h67.05c5.1,0,7.84,2.74,7.84,7.84Zm-6.27-21.56c0,5.1-2.74,7.84-7.84,7.84h-54.5c-5.1,0-7.84-2.74-7.84-7.84s2.74-7.84,7.84-7.84h54.5c5.1,0,7.84,2.74,7.84,7.84Zm24.7,86.26c0,5.1-2.74,7.84-7.84,7.84h-39.6c-5.1,0-7.84-2.74-7.84-7.84s2.74-7.84,7.84-7.84h39.6c5.1,0,7.84,2.74,7.84,7.84Zm6.27,21.56c0,5.1-2.74,7.84-7.84,7.84h-39.6c-5.1,0-7.84-2.74-7.84-7.84s2.74-7.84,7.84-7.84h39.6c5.1,0,7.84,2.75,7.84,7.84Zm5.88,21.57c0,5.1-2.74,7.84-7.84,7.84h-39.6c-5.1,0-7.84-2.75-7.84-7.84s2.74-7.84,7.84-7.84h39.6c5.1,0,7.84,2.75,7.84,7.84Zm-49.01,21.57c0-5.1,2.74-7.84,7.84-7.84h98.81c5.1,0,7.84,2.74,7.84,7.84s-2.74,7.84-7.84,7.84h-98.81c-5.1,0-7.84-2.75-7.84-7.84Zm6.27,21.56c0-5.1,2.74-7.84,7.84-7.84h84.69c5.1,0,7.84,2.74,7.84,7.84s-2.74,7.84-7.84,7.84h-84.69c-5.1,0-7.84-2.74-7.84-7.84Zm6.27,21.56c0-5.1,2.74-7.84,7.84-7.84h70.58c5.1,0,7.84,2.75,7.84,7.84s-2.74,7.84-7.84,7.84h-70.58c-5.1,0-7.84-2.74-7.84-7.84Zm45.87-64.69c0-5.1,2.74-7.84,7.84-7.84h47.83c5.1,0,7.84,2.75,7.84,7.84s-2.75,7.84-7.84,7.84h-47.83c-5.1,0-7.84-2.75-7.84-7.84Zm5.88-21.57c0-5.1,2.74-7.84,7.84-7.84h49.8c5.1,0,7.84,2.75,7.84,7.84s-2.75,7.84-7.84,7.84h-49.8c-5.1,0-7.84-2.74-7.84-7.84Zm6.27-21.56c0-5.1,2.74-7.84,7.84-7.84h50.97c5.1,0,7.84,2.74,7.84,7.84s-2.75,7.84-7.84,7.84h-50.97c-5.1,0-7.84-2.74-7.84-7.84Zm6.27-21.56c0-5.1,2.74-7.84,7.84-7.84h52.54c5.1,0,7.84,2.74,7.84,7.84s-2.75,7.84-7.84,7.84h-52.54c-5.1,0-7.84-2.75-7.84-7.84Zm6.27-21.57c0-5.1,2.74-7.84,7.84-7.84h53.72c5.1,0,7.84,2.75,7.84,7.84s-2.74,7.84-7.84,7.84h-53.72c-5.1,0-7.84-2.75-7.84-7.84Zm6.27-21.56c0-5.1,2.74-7.84,7.84-7.84h55.28c5.1,0,7.84,2.74,7.84,7.84s-2.74,7.84-7.84,7.84h-55.28c-5.1,0-7.84-2.74-7.84-7.84Zm14.12-29.41h56.85c5.1,0,7.84,2.74,7.84,7.84s-2.74,7.84-7.84,7.84h-56.85c-5.1,0-7.84-2.74-7.84-7.84s2.74-7.84,7.84-7.84Z"/>
      <path class="cls-1" d="m817.49,95.28c0,5.1-2.74,7.84-7.84,7.84h-152.52c-5.1,0-7.84-2.74-7.84-7.84s2.75-7.84,7.84-7.84h152.52c5.1,0,7.84,2.74,7.84,7.84Zm0,21.56c0,5.1-2.74,7.84-7.84,7.84h-152.52c-5.1,0-7.84-2.74-7.84-7.84s2.75-7.84,7.84-7.84h152.52c5.1,0,7.84,2.74,7.84,7.84Zm0,21.56c0,5.1-2.74,7.84-7.84,7.84h-152.52c-5.1,0-7.84-2.75-7.84-7.84s2.75-7.84,7.84-7.84h152.52c5.1,0,7.84,2.75,7.84,7.84Zm-81.55,21.57c0,5.1-2.74,7.84-7.84,7.84h-50.19c-5.1,0-7.84-2.75-7.84-7.84s2.75-7.84,7.84-7.84h50.19c5.1,0,7.84,2.74,7.84,7.84Zm0,21.56c0,5.1-2.74,7.84-7.84,7.84h-50.19c-5.1,0-7.84-2.74-7.84-7.84s2.75-7.84,7.84-7.84h50.19c5.1,0,7.84,2.74,7.84,7.84Zm0,21.56c0,5.1-2.74,7.84-7.84,7.84h-50.19c-5.1,0-7.84-2.74-7.84-7.84s2.75-7.84,7.84-7.84h50.19c5.1,0,7.84,2.75,7.84,7.84Zm0,21.57c0,5.1-2.74,7.84-7.84,7.84h-50.19c-5.1,0-7.84-2.75-7.84-7.84s2.75-7.84,7.84-7.84h50.19c5.1,0,7.84,2.75,7.84,7.84Zm81.55,21.57c0,5.1-2.74,7.84-7.84,7.84h-130.17c-5.1,0-7.84-2.75-7.84-7.84s2.75-7.84,7.84-7.84h130.17c5.1,0,7.84,2.74,7.84,7.84Zm-81.55-172.52c0,5.1-2.74,7.84-7.84,7.84h-43.13c-5.1,0-7.84-2.74-7.84-7.84s2.74-7.84,7.84-7.84h43.13c5.1,0,7.84,2.74,7.84,7.84Zm81.55,194.08c0,5.1-2.74,7.84-7.84,7.84h-124.29c-5.1,0-7.84-2.74-7.84-7.84s2.75-7.84,7.84-7.84h124.29c5.1,0,7.84,2.74,7.84,7.84Zm-81.55-215.65c0,5.1-2.74,7.84-7.84,7.84h-32.94c-5.1,0-7.84-2.74-7.84-7.84s2.75-7.84,7.84-7.84h32.94c5.1,0,7.84,2.74,7.84,7.84Zm0-21.56c0,5.1-2.74,7.84-7.84,7.84h-30.19c-5.1,0-7.84-2.74-7.84-7.84s2.75-7.84,7.84-7.84h30.19c5.1,0,7.84,2.74,7.84,7.84Zm81.55,258.78c0,5.1-2.74,7.84-7.84,7.84h-106.26c-5.1,0-7.84-2.74-7.84-7.84s2.74-7.84,7.84-7.84h106.26c5.1,0,7.84,2.75,7.84,7.84Z"/>
      <path class="cls-2" d="m1176.64,164.29v47.44c0,59.99-12.55,85.87-81.16,85.87h-60.77c-45.48,0-62.73-11.37-69.4-36.46v32.54c0,2.35-1.57,3.92-3.92,3.92h-7.84c-2.35,0-3.92-1.57-3.92-3.92V3.92c0-2.35,1.57-3.92,3.92-3.92h7.84c2.35,0,3.92,1.57,3.92,3.92v109.79c6.67-25.49,23.92-36.46,69.4-36.46h60.77c68.62,0,81.16,25.49,81.16,87.04Zm-15.68,0c0-59.21-10.98-71.36-65.48-71.36h-64.69c-45.09,0-65.48,9.41-65.48,71.36v47.44c0,60.38,20.78,70.18,65.48,70.18h64.69c54.11,0,65.48-12.55,65.48-70.18v-47.44Z"/>
      <path class="cls-2" d="m1216.63,293.68V3.92c0-2.35,1.57-3.92,3.92-3.92h7.84c2.35,0,3.92,1.57,3.92,3.92v289.75c0,2.35-1.57,3.92-3.92,3.92h-7.84c-2.35,0-3.92-1.57-3.92-3.92Z"/>
      <path class="cls-2" d="m1272.31,210.55v-47.44c0-59.99,12.55-85.87,81.16-85.87h65.09c68.62,0,81.16,25.88,81.16,85.87v47.44c0,61.56-12.55,87.04-81.16,87.04h-65.09c-68.62,0-81.16-25.49-81.16-87.04Zm146.25,71.36c54.5,0,65.48-12.15,65.48-71.36v-47.44c0-57.64-11.37-70.18-65.48-70.18h-65.09c-54.11,0-65.48,12.55-65.48,70.18v47.44c0,59.21,10.98,71.36,65.48,71.36h65.09Z"/>
      <path class="cls-2" d="m1561.27,370.92v-7.84c0-2.35,1.57-3.92,3.92-3.92h114.1c54.89,0,67.05-21.17,67.05-71.36v-26.66c-6.67,25.49-23.92,36.46-69.4,36.46h-60.77c-68.62,0-81.16-25.49-81.16-87.04v-47.44c0-59.99,12.55-85.87,81.16-85.87h60.77c45.48,0,62.73,11.37,69.4,36.46v-32.54c0-2.35,1.57-3.92,3.92-3.92h7.84c2.35,0,3.92,1.57,3.92,3.92v206.63c0,53.72-14.12,87.04-82.73,87.04h-114.1c-2.35,0-3.92-1.57-3.92-3.92Zm119.59-89c45.09,0,65.48-9.41,65.48-71.36v-47.44c0-60.38-20.78-70.18-65.48-70.18h-64.7c-54.11,0-65.48,12.55-65.48,70.18v47.44c0,59.21,10.98,71.36,65.48,71.36h64.7Z"/>
    </g>
  </g>
</svg>
